{
  "accessors": [
    {
      "bufferView": 1,
      "componentType": 5126,
      "count": 803,
      "max": [
        1.0699100494384766,
        1.0842499732971191,
        0.64871001243591309
      ],
      "min": [
        -1.1052099466323853,
        -1.1470400094985962,
        -1
      ],
      "type": "VEC3"
    },
    {
      "bufferView": 1,
      "byteOffset": 9636,
      "componentType": 5126,
      "count": 803,
      "max": [
        0.99972009658813477,
        0.97562986612319946,
        1
      ],
      "min": [
        -0.99801343679428101,
        -0.97245913743972778,
        -1
      ],
      "type": "VEC3"
    },
    {
      "bufferView": 0,
      "componentType": 5125,
      "count": 999,
      "max": [
        802
      ],
      "min": [
        0
      ],
      "type": "SCALAR"
    },
    {
      "bufferView": 2,
      "componentType": 5126,
      "count": 282,
      "max": [
        11.75
      ],
      "min": [
        0.041669998317956924
      ],
      "type": "SCALAR"
    },
    {
      "bufferView": 3,
      "componentType": 5126,
      "count": 282,
      "max": [
        0,
        0,
        1,
        1
      ],
      "min": [
        0,
        0,
        -0.99967998266220093,
        -0.0026899999938905239
      ],
      "type": "VEC4"
    }
  ],
  "animations": [
    {
      "channels": [
        {
          "sampler": 0,
          "target": {
            "node": 5,
            "path": "rotation"
          }
        }
      ],
      "name": "CubeAction",
      "samplers": [
        {
          "input": 3,
          "interpolation": "LINEAR",
          "output": 4
        }
      ]
    }
  ],
  "asset": {
    "extras": {
      "author": "BlastOffGames (https://sketchfab.com/BlastOffGames)",
      "license": "CC-BY-4.0 (http://creativecommons.org/licenses/by/4.0/)",
      "source": "https://sketchfab.com/3d-models/mountain-12b29bb3ff554a6fbad3d6b6a2519236",
      "title": "Mountain"
    },
    "generator": "Sketchfab-6.32.0",
    "version": "2.0"
  },
  "bufferViews": [
    {
      "buffer": 0,
      "byteLength": 3996,
      "byteOffset": 0,
      "name": "floatBufferViews",
      "target": 34963
    },
    {
      "buffer": 0,
      "byteLength": 19272,
      "byteOffset": 3996,
      "byteStride": 12,
      "name": "floatBufferViews",
      "target": 34962
    },
    {
      "buffer": 0,
      "byteLength": 1128,
      "byteOffset": 23268,
      "name": "floatBufferViews"
    },
    {
      "buffer": 0,
      "byteLength": 4512,
      "byteOffset": 24396,
      "byteStride": 16,
      "name": "floatBufferViews"
    }
  ],
  "buffers": [
    {
      "byteLength": 28908,
      "uri": "scene.bin"
    }
  ],
  "materials": [
    {
      "doubleSided": true,
      "emissiveFactor": [
        0,
        0,
        0
      ],
      "name": "Material",
      "pbrMetallicRoughness": {
        "baseColorFactor": [
          0.64000001907348647,
          0.64000001907348647,
          0.64000001907348647,
          1
        ],
        "metallicFactor": 0,
        "roughnessFactor": 0.59999999999999998
      }
    }
  ],
  "meshes": [
    {
      "name": "Cube_0",
      "primitives": [
        {
          "attributes": {
            "NORMAL": 1,
            "POSITION": 0
          },
          "indices": 2,
          "material": 0,
          "mode": 4
        }
      ]
    }
  ],
  "nodes": [
    {
      "children": [
        1
      ],
      "name": "RootNode (gltf orientation matrix)",
      "rotation": [
        -0.70710678118654746,
        -0,
        -0,
        0.70710678118654757
      ]
    },
    {
      "children": [
        2
      ],
      "matrix": [
        1,
        -1.6081226229577292e-16,
        -1.7853747624282703e-32,
        0,
        1.6081226229577292e-16,
        1,
        1.6081226229577292e-16,
        0,
        -8.0068364242718248e-33,
        -1.6081226229577292e-16,
        1,
        0,
        -5.5511151231257827e-17,
        0,
        -8.3266726846886741e-17,
        1
      ],
      "name": "RootNode (model correction matrix)"
    },
    {
      "children": [
        3,
        5
      ],
      "name": "Root"
    },
    {
      "children": [
        4
      ],
      "matrix": [
        -0.29086000000000006,
        0.95517000000000007,
        -0.05519000000000001,
        0,
        -0.77110000000000001,
        -0.19988000000000003,
        0.60452000000000006,
        0,
        0.56639000000000006,
        0.21839000000000003,
        0.7946700000000001,
        0,
        4.0762500000000008,
        1.00545,
        5.9038600000000008,
        1
      ],
      "name": "Lamp"
    },
    {
      "name": "Lamp"
    },
    {
      "children": [
        6
      ],
      "name": "Cube",
      "translation": [
        0.355569988489151,
        0.50269997119903564,
        0
      ]
    },
    {
      "mesh": 0,
      "name": "Cube_0"
    }
  ],
  "scene": 0,
  "scenes": [
    {
      "name": "OSG_Scene",
      "nodes": [
        0
      ]
    }
  ]
}

